<?xml version="1.0" encoding="utf-8"?>
<svg xmlns="http://www.w3.org/2000/svg" viewBox="0 0 26 26" width="208" height="208">
  <path d="M10.5 3C9.789063 3 9.320313 3.289063 9.09375 3.6875L7.8125 6L6 6C6 5.449219 5.550781 5 5 5L3 5C2.449219 5 2 5.449219 2 6L2 6.1875C0.835938 6.601563 0 7.695313 0 9L0 19.125C0 21.816406 2.183594 24 4.875 24L21.125 24C23.816406 24 26 21.816406 26 19.125L26 10.875C26 8.183594 23.816406 6 21.125 6L20.1875 6L18.90625 3.6875C18.679688 3.289063 18.179688 3 17.5 3 Z M 4 6.5C4.828125 6.5 5.5 7.171875 5.5 8C5.5 8.828125 4.828125 9.5 4 9.5C3.171875 9.5 2.5 8.828125 2.5 8C2.5 7.171875 3.171875 6.5 4 6.5 Z M 14 6.9375C17.898438 6.9375 21.0625 10.101563 21.0625 14C21.0625 17.898438 17.898438 21.0625 14 21.0625C10.101563 21.0625 6.9375 17.902344 6.9375 14C6.9375 10.097656 10.101563 6.9375 14 6.9375 Z M 14 9.1875C11.34375 9.1875 9.1875 11.34375 9.1875 14C9.1875 16.65625 11.34375 18.8125 14 18.8125C16.65625 18.8125 18.8125 16.65625 18.8125 14C18.8125 11.34375 16.65625 9.1875 14 9.1875Z" fill="#3B82AC" />
</svg>